<?xml version="1.0" encoding="UTF-8" standalone="no"?>
<!DOCTYPE svg PUBLIC "-//W3C//DTD SVG 1.1//EN" "http://www.w3.org/Graphics/SVG/1.1/DTD/svg11.dtd">
<svg width="100%" height="100%" viewBox="0 0 512 512" version="1.1" xmlns="http://www.w3.org/2000/svg" xmlns:xlink="http://www.w3.org/1999/xlink" xml:space="preserve" xmlns:serif="http://www.serif.com/" style="fill-rule:evenodd;clip-rule:evenodd;stroke-linejoin:round;stroke-miterlimit:2;">
    <g transform="matrix(0.53884,-1.49558e-17,1.49558e-17,0.53884,-34.9736,-63.1648)">
        <path d="M366.729,712.006L360.21,811.769C359.817,818.03 359.712,821.754 359.896,822.941C360.215,825.002 361.354,826.59 363.314,827.705C365.273,828.821 367.621,829.167 370.356,828.744C375.449,827.955 380.467,824.807 385.409,819.299C392.654,811.209 398.238,801.561 402.16,790.356C406.082,779.151 407.37,769.201 406.023,760.506C405.482,757.009 404.675,753.988 403.604,751.444C402.533,748.9 400.366,745.219 397.103,740.401C394.722,736.899 393.24,734.515 392.657,733.251C391.906,731.528 391.385,729.722 391.092,727.831C390.184,721.971 391.753,716.478 395.798,711.351C399.843,706.224 405.269,703.134 412.074,702.08C419.162,700.983 425.434,702.891 430.889,707.804C436.344,712.718 439.905,720.562 441.574,731.337C443.623,744.569 442.818,759.284 439.16,775.481C435.501,791.677 429.288,806.624 420.521,820.322C411.753,834.019 402.285,844.438 392.118,851.577C381.95,858.717 370.843,863.219 358.798,865.084C348.166,866.731 339.131,865.324 331.694,860.862C322.78,855.564 317.613,848.332 316.193,839.164C315.301,833.398 315.093,826.801 315.571,819.371L319.658,759.943L289.647,764.591L292.306,736.161C301.248,734.486 310.507,731.915 320.082,728.448C329.657,724.981 340.399,720.245 352.308,714.239L366.729,712.006ZM507.283,690.24L521.551,688.03L512.594,790.625C511.95,797.781 511.737,802.067 511.957,803.483C512.205,805.089 512.918,806.307 514.094,807.14C515.27,807.973 516.703,808.258 518.394,807.996C523.018,807.28 528.272,802.982 534.156,795.103L552.286,811.603C539.685,829.233 525.032,839.342 508.327,841.929C500.932,843.074 494.477,842.743 488.962,840.935C483.447,839.128 478.75,835.96 474.871,831.431C470.991,826.902 468.686,822.275 467.954,817.549C467.691,815.848 467.546,812.874 467.521,808.627C467.454,802.359 467.615,797.263 468.002,793.339L472.943,736.351L444.059,740.824L446.581,712.415C469.432,706.36 489.666,698.968 507.283,690.24ZM642.204,604.744L630.565,774.879C630.194,780.339 630.127,783.841 630.366,785.382C630.628,787.078 631.364,788.325 632.574,789.125C633.784,789.924 635.139,790.207 636.641,789.975C638.496,789.688 640.595,788.637 642.938,786.822C646.738,783.911 649.935,780.609 652.53,776.917L670.6,792.846C662.907,802.941 655.471,810.311 648.29,814.955C641.109,819.6 633.547,822.537 625.604,823.767C615.468,825.337 606.771,823.514 599.513,818.299C592.254,813.084 587.922,805.939 586.517,796.866C585.785,792.14 585.686,785.806 586.221,777.862L594.726,652.309L563.782,657.101L566.81,628.614C576.048,626.99 585.424,624.522 594.939,621.209C604.453,617.897 615.206,613.183 627.198,607.068L642.204,604.744ZM789.503,662.57L796.867,648.879L830.715,643.637L821.773,742.288C821.242,749.048 821.115,753.326 821.393,755.122C821.656,756.823 822.476,758.124 823.852,759.023C825.229,759.923 826.846,760.229 828.704,759.942C830.655,759.64 833.108,758.437 836.064,756.334C839.02,754.231 842.046,751.198 845.143,747.234L864.066,763.466C856.752,772.922 849.295,780.053 841.696,784.859C834.096,789.665 826.058,792.725 817.579,794.038C811.644,794.957 806.086,794.729 800.905,793.354C795.725,791.978 791.17,789.659 787.24,786.397C783.31,783.134 780.313,779.194 778.248,774.578C774.879,780.326 770.596,785.635 765.398,790.505C760.2,795.375 755.023,799.128 749.867,801.766C744.71,804.403 738.824,806.234 732.208,807.258C722,808.839 712.679,807.863 704.244,804.33C695.809,800.797 688.732,795.094 683.013,787.221C677.293,779.348 673.511,769.457 671.667,757.549C667.861,732.975 673.382,710.368 688.229,689.729C703.076,669.089 721.881,657.007 744.646,653.482C752.933,652.199 760.445,652.215 767.183,653.531C773.921,654.848 781.361,657.861 789.503,662.57ZM780.548,688.001C774.733,684.832 769.919,682.816 766.105,681.954C762.292,681.091 758.494,680.953 754.712,681.538C742.326,683.456 733.03,691.73 726.823,706.36C720.616,720.99 718.715,736.068 721.12,751.594C722.131,758.127 724.611,763.197 728.558,766.802C732.505,770.408 736.795,771.852 741.428,771.134C746.629,770.329 751.449,767.692 755.889,763.224C761.985,756.948 767.3,747.351 771.836,734.432C776.371,721.513 779.275,706.036 780.548,688.001ZM493.052,627.842C500.33,626.715 506.359,628.152 511.141,632.154C515.922,636.156 518.818,641.418 519.827,647.939C520.574,652.759 520.039,657.585 518.222,662.415C516.405,667.245 513.39,671.365 509.176,674.776C504.962,678.187 500.681,680.229 496.333,680.902C492.269,681.532 488.06,681.07 483.707,679.519C479.353,677.967 475.828,675.513 473.13,672.156C470.433,668.799 468.755,664.994 468.096,660.741C467.364,656.015 467.987,651.128 469.963,646.08C471.94,641.031 474.911,636.942 478.879,633.811C482.846,630.68 487.57,628.691 493.052,627.842ZM277.37,409.498L295.821,482.712L266.837,490.539C262.268,473.535 255.308,461.402 245.957,454.14C236.606,446.878 225.929,444.176 213.925,446.035C203.34,447.674 193.628,452.614 184.79,460.854C175.953,469.094 169.432,480.266 165.229,494.37C160.518,510.197 159.304,525.483 161.587,540.227C163.402,551.947 167.163,562.011 172.868,570.419C178.574,578.826 185.275,584.757 192.972,588.21C200.668,591.664 208.675,592.747 216.993,591.459C223.609,590.434 230.029,588.303 236.254,585.064C242.479,581.826 248.573,577.277 254.537,571.418C260.501,565.558 267.419,556.793 275.29,545.121L298.427,559.54C289.544,577.175 276.751,592.367 260.046,605.115C245.863,616.022 229.651,622.888 211.409,625.713C185.701,629.694 163.111,624.434 143.638,609.932C123.495,594.856 111.397,574.228 107.343,548.047C104.269,528.199 106.418,508.8 113.791,489.851C121.164,470.901 132.673,454.916 148.32,441.895C163.966,428.875 181.382,420.879 200.569,417.908C211.249,416.254 221.698,416.232 231.916,417.844C238.949,418.884 245.717,421.03 252.221,424.281L256.954,412.66L277.37,409.498ZM436.903,535.047L457.95,552.837C446.039,567.167 434.319,577.886 422.79,584.994C411.261,592.103 398.927,596.674 385.79,598.708C367.548,601.533 352.676,599.868 341.174,593.713C323.516,584.06 313.114,569.073 309.967,548.752C307.611,533.535 309.681,518.624 316.178,504.021C322.676,489.417 333.374,476.63 348.273,465.661C363.173,454.691 379.838,447.78 398.268,444.926C413.768,442.525 426.353,444.109 436.023,449.676C445.692,455.244 451.281,462.895 452.788,472.631C453.842,479.436 453.252,485.624 451.018,491.196C448.102,498.616 443.38,505.154 436.852,510.811C430.324,516.467 419.973,521.966 405.799,527.306C391.625,532.646 376.322,536.637 359.891,539.279L360.44,542.823C361.655,550.668 365.179,556.703 371.011,560.929C376.843,565.156 383.776,566.647 391.81,565.403C398.521,564.363 405.52,561.441 412.809,556.634C422.633,550.08 430.665,542.884 436.903,535.047ZM539.418,423.067L537.115,456.104C541.238,447.137 545.492,440.112 549.877,435.027C554.263,429.942 559.159,425.819 564.568,422.658C569.977,419.496 575.42,417.492 580.896,416.644C589.111,415.372 595.943,416.564 601.393,420.22C606.842,423.877 610.093,429.108 611.147,435.913C612.259,443.096 611.057,449.379 607.539,454.763C604.021,460.147 599.146,463.322 592.912,464.287C590.458,464.667 588.093,464.694 585.818,464.369C584.533,464.181 581.058,462.977 575.394,460.757C571.593,459.314 568.417,458.789 565.868,459.184C563.98,459.476 562.157,460.194 560.4,461.337C557.692,463.208 554.833,466.288 551.823,470.577C548.812,474.866 545.815,481.113 542.83,489.318C540.577,495.377 538.512,504.673 536.633,517.207C534.754,529.741 533.413,541.538 532.611,552.599L530.945,572.746L486.347,579.652L493.688,470.797L471.757,474.193L473.92,445.84C489.235,443.178 506.706,436.262 526.335,425.093L539.418,423.067ZM745.972,490.959L765.165,509.908C742.676,533.424 718.247,547.224 691.877,551.308C672.218,554.352 655.661,551.182 642.207,541.797C628.752,532.412 620.664,518.929 617.942,501.349C615.629,486.416 617.645,471.466 623.989,456.498C630.333,441.531 640.304,428.736 653.902,418.113C667.5,407.491 682.759,400.869 699.677,398.249C716.406,395.659 730.296,397.548 741.348,403.918C752.4,410.288 758.738,418.718 760.363,429.21C761.504,436.582 760.329,442.74 756.836,447.685C753.343,452.629 748.194,455.628 741.389,456.682C737.231,457.326 733.35,456.955 729.748,455.569C726.146,454.183 723.049,451.99 720.455,448.991C719.18,447.633 717.645,444.907 715.849,440.812C713.915,436.446 712.225,433.501 710.779,431.976C709.333,430.451 707.513,429.324 705.32,428.595C703.126,427.865 700.895,427.676 698.626,428.027C693.428,428.832 688.519,431.819 683.9,436.986C677.863,443.631 673.237,452.501 670.019,463.597C666.802,474.693 665.961,485.203 667.498,495.127C668.742,503.161 672.253,509.271 678.031,513.457C683.809,517.643 690.762,519.107 698.89,517.848C705.411,516.838 712.864,514.027 721.247,509.414C729.63,504.801 737.872,498.649 745.972,490.959ZM899.452,383.347L906.815,369.656L940.663,364.415L931.721,463.065C931.19,469.825 931.063,474.103 931.341,475.899C931.604,477.6 932.424,478.901 933.801,479.801C935.177,480.701 936.794,481.007 938.652,480.719C940.603,480.417 943.056,479.214 946.012,477.111C948.968,475.008 951.994,471.975 955.091,468.011L974.014,484.243C966.7,493.699 959.243,500.83 951.644,505.637C944.045,510.443 936.006,513.502 927.527,514.815C921.592,515.734 916.034,515.506 910.854,514.131C905.673,512.756 901.118,510.437 897.188,507.174C893.259,503.911 890.261,499.972 888.196,495.356C884.828,501.103 880.544,506.412 875.346,511.282C870.149,516.152 864.971,519.905 859.815,522.543C854.658,525.18 848.772,527.011 842.156,528.036C831.948,529.617 822.627,528.64 814.192,525.108C805.757,521.575 798.68,515.872 792.961,507.999C787.241,500.126 783.459,490.235 781.615,478.326C777.809,453.752 783.33,431.145 798.177,410.506C813.024,389.867 831.83,377.784 854.594,374.259C862.881,372.976 870.393,372.992 877.131,374.309C883.869,375.625 891.309,378.638 899.452,383.347ZM361.415,513.492C376.122,510.344 387.322,506.891 395.015,503.135C402.708,499.379 407.924,495.402 410.661,491.204C412.788,488.068 413.589,484.798 413.062,481.396C412.593,478.371 410.993,476.006 408.261,474.3C405.529,472.594 402.178,472.048 398.208,472.663C393.482,473.395 388.54,475.539 383.381,479.096C378.221,482.654 373.818,487.183 370.169,492.684C366.521,498.184 363.603,505.121 361.415,513.492ZM890.497,408.778C884.681,405.609 879.867,403.594 876.053,402.731C872.24,401.868 868.442,401.73 864.66,402.315C852.274,404.234 842.978,412.508 836.771,427.138C830.565,441.768 828.663,456.846 831.068,472.371C832.079,478.904 834.559,483.974 838.506,487.579C842.453,491.185 846.743,492.629 851.376,491.912C856.577,491.106 861.398,488.469 865.837,484.002C871.933,477.725 877.248,468.128 881.784,455.209C886.319,442.29 889.223,426.813 890.497,408.778Z" style="fill:rgb(16,0,0);fill-rule:nonzero;"/>
    </g>
</svg>
